<?xml version="1.0" standalone="no"?>
<!DOCTYPE svg PUBLIC "-//W3C//DTD SVG 20010904//EN"
 "http://www.w3.org/TR/2001/REC-SVG-20010904/DTD/svg10.dtd">
<svg version="1.0" xmlns="http://www.w3.org/2000/svg"
 width="1754.000000pt" height="1240.000000pt" viewBox="0 0 1754.000000 1240.000000"
 preserveAspectRatio="xMidYMid meet">

<g transform="translate(0.000000,1240.000000) scale(0.100000,-0.100000)"
fill="#000000" stroke="none">
<path d="M1668 7769 c-13 -7 -18 -22 -18 -50 0 -36 3 -41 35 -55 31 -12 35
-19 35 -49 0 -30 -3 -35 -24 -35 -16 0 -27 7 -31 20 -7 21 -25 28 -25 10 0
-14 38 -50 53 -50 31 0 48 25 45 65 -2 31 -9 42 -33 55 -22 12 -31 25 -33 48
-3 27 0 32 18 32 13 0 24 -8 27 -20 6 -22 23 -28 23 -7 -1 32 -43 53 -72 36z"/>
<path d="M2160 7765 c0 -8 5 -15 10 -15 6 0 10 7 10 15 0 8 -4 15 -10 15 -5 0
-10 -7 -10 -15z"/>
<path d="M2273 7773 c-7 -2 -13 -15 -13 -28 0 -13 -6 -26 -12 -29 -10 -5 -10
-7 0 -12 8 -4 12 -29 12 -75 0 -39 4 -69 10 -69 6 0 10 30 10 69 0 46 4 71 13
75 10 5 10 7 0 12 -15 7 -17 44 -3 44 6 0 10 5 10 10 0 11 -7 12 -27 3z"/>
<path d="M2350 7765 c0 -8 5 -15 10 -15 6 0 10 7 10 15 0 8 -4 15 -10 15 -5 0
-10 -7 -10 -15z"/>
<path d="M2430 7670 c0 -67 4 -110 10 -110 6 0 10 9 10 19 0 24 10 51 19 51 4
0 13 -16 20 -35 7 -19 17 -35 22 -35 12 0 12 1 -10 51 -20 43 -20 44 0 76 12
18 16 33 10 33 -6 0 -21 -19 -33 -42 l-23 -43 -3 73 c-5 115 -22 85 -22 -38z"/>
<path d="M2890 7765 c0 -8 5 -15 10 -15 6 0 10 7 10 15 0 8 -4 15 -10 15 -5 0
-10 -7 -10 -15z"/>
<path d="M3120 7765 c0 -8 5 -15 10 -15 6 0 10 7 10 15 0 8 -4 15 -10 15 -5 0
-10 -7 -10 -15z"/>
<path d="M4300 7670 c0 -67 4 -110 10 -110 6 0 10 9 10 19 0 24 10 51 19 51 4
0 13 -16 20 -35 7 -19 17 -35 22 -35 12 0 12 1 -10 51 -20 43 -20 44 0 76 12
18 16 33 10 33 -6 0 -21 -19 -33 -42 l-23 -43 -3 73 c-5 115 -22 85 -22 -38z"/>
<path d="M4810 7671 l0 -109 36 3 c44 3 54 17 54 77 0 53 -21 82 -51 73 -16
-5 -19 -1 -19 29 0 20 -4 36 -10 36 -6 0 -10 -43 -10 -109z m65 -31 c0 -48 -2
-55 -20 -55 -16 0 -21 8 -23 44 -4 54 3 73 25 69 15 -3 18 -14 18 -58z"/>
<path d="M5100 7670 c0 -120 17 -153 22 -42 3 59 5 67 23 67 18 0 20 -8 23
-67 4 -86 22 -89 22 -4 0 71 -17 101 -51 91 -16 -5 -19 -1 -19 29 0 20 -4 36
-10 36 -6 0 -10 -43 -10 -110z"/>
<path d="M2071 7743 c0 -13 -5 -23 -10 -23 -8 0 -5 -80 4 -126 3 -12 12 -25
21 -28 24 -9 33 3 11 15 -23 13 -25 119 -2 119 8 0 15 5 15 10 0 6 -6 10 -14
10 -8 0 -17 10 -19 23 l-4 22 -2 -22z"/>
<path d="M2731 7743 c0 -13 -5 -23 -10 -23 -8 0 -5 -80 4 -126 3 -12 12 -25
21 -28 24 -9 33 3 11 15 -23 13 -25 119 -2 119 8 0 15 5 15 10 0 6 -6 10 -14
10 -8 0 -17 10 -19 23 l-4 22 -2 -22z"/>
<path d="M4071 7743 c0 -13 -5 -23 -10 -23 -8 0 -5 -80 4 -126 3 -12 12 -25
21 -28 24 -9 33 3 11 15 -23 13 -25 119 -2 119 8 0 15 5 15 10 0 6 -6 10 -14
10 -8 0 -17 10 -19 23 l-4 22 -2 -22z"/>
<path d="M1818 7709 c-14 -8 -18 -23 -18 -69 0 -49 3 -61 20 -70 29 -16 60 -3
60 23 -1 20 -2 21 -14 5 -22 -29 -46 -23 -46 12 0 28 3 30 36 30 36 0 36 1 30
32 -3 17 -7 32 -9 34 -11 9 -45 11 -59 3z m50 -31 c3 -13 -3 -18 -22 -18 -20
0 -26 5 -26 21 0 15 5 20 22 17 13 -2 24 -11 26 -20z"/>
<path d="M1940 7638 c0 -45 4 -78 10 -78 6 0 10 29 10 66 0 57 3 67 20 71 30
8 24 20 -10 20 l-30 0 0 -79z"/>
<path d="M2160 7640 c0 -47 4 -80 10 -80 6 0 10 33 10 80 0 47 -4 80 -10 80
-6 0 -10 -33 -10 -80z"/>
<path d="M2350 7640 c0 -47 4 -80 10 -80 6 0 10 33 10 80 0 47 -4 80 -10 80
-6 0 -10 -33 -10 -80z"/>
<path d="M2594 7706 c-11 -8 -15 -18 -10 -23 5 -4 11 -2 13 5 8 21 43 14 43
-8 0 -13 -7 -20 -19 -20 -27 0 -51 -27 -51 -55 0 -28 24 -44 63 -42 26 2 27 4
27 64 0 43 -5 66 -16 77 -19 20 -25 20 -50 2z m46 -96 c0 -23 -4 -30 -20 -30
-23 0 -35 22 -26 45 3 8 15 15 26 15 16 0 20 -7 20 -30z"/>
<path d="M2890 7640 c0 -47 4 -80 10 -80 6 0 10 33 10 80 0 47 -4 80 -10 80
-6 0 -10 -33 -10 -80z"/>
<path d="M2970 7638 c0 -96 18 -104 22 -10 3 59 5 67 23 67 18 0 20 -8 23 -67
4 -85 22 -90 22 -5 0 76 -8 90 -54 92 l-36 1 0 -78z"/>
<path d="M3120 7640 c0 -47 4 -80 10 -80 6 0 10 33 10 80 0 47 -4 80 -10 80
-6 0 -10 -33 -10 -80z"/>
<path d="M3280 7638 c0 -45 4 -78 10 -78 6 0 10 28 10 65 0 50 4 67 15 72 24
9 29 -2 33 -72 6 -87 22 -83 22 6 0 62 2 70 18 67 14 -3 18 -16 20 -71 2 -37
7 -67 12 -67 14 0 13 137 -1 146 -6 3 -40 7 -75 8 l-64 1 0 -77z"/>
<path d="M3508 7709 c-14 -8 -18 -23 -18 -69 0 -49 3 -61 20 -70 29 -16 60 -3
60 23 -1 20 -2 21 -14 5 -22 -29 -46 -23 -46 12 0 28 3 30 36 30 36 0 36 1 30
32 -3 17 -7 32 -9 34 -11 9 -45 11 -59 3z m50 -31 c3 -13 -3 -18 -22 -18 -20
0 -26 5 -26 21 0 15 5 20 22 17 13 -2 24 -11 26 -20z"/>
<path d="M3630 7638 c0 -96 18 -104 22 -10 3 59 5 67 23 67 18 0 20 -8 23 -67
4 -85 22 -90 22 -5 0 76 -8 90 -54 92 l-36 1 0 -78z"/>
<path d="M3770 7713 c0 -5 9 -40 19 -80 18 -69 18 -123 0 -123 -5 0 -9 -5 -9
-10 0 -7 6 -7 18 -1 13 7 25 39 40 108 25 111 25 113 13 113 -5 0 -12 -22 -16
-48 -11 -78 -22 -83 -35 -14 -7 34 -17 62 -21 62 -5 0 -9 -3 -9 -7z"/>
<path d="M3934 7706 c-11 -8 -15 -18 -10 -23 5 -4 11 -2 13 5 8 21 43 14 43
-8 0 -13 -7 -20 -19 -20 -27 0 -51 -27 -51 -55 0 -28 24 -44 63 -42 26 2 27 4
27 64 0 43 -5 66 -16 77 -19 20 -25 20 -50 2z m46 -96 c0 -23 -4 -30 -20 -30
-23 0 -35 22 -26 45 3 8 15 15 26 15 16 0 20 -7 20 -30z"/>
<path d="M4174 7706 c-11 -8 -15 -18 -10 -23 5 -4 11 -2 13 5 8 21 43 14 43
-8 0 -13 -7 -20 -19 -20 -27 0 -51 -27 -51 -55 0 -28 24 -44 63 -42 26 2 27 4
27 64 0 43 -5 66 -16 77 -19 20 -25 20 -50 2z m46 -96 c0 -23 -4 -30 -20 -30
-23 0 -35 22 -26 45 3 8 15 15 26 15 16 0 20 -7 20 -30z"/>
<path d="M4464 7706 c-11 -8 -15 -18 -10 -23 5 -4 11 -2 13 5 8 21 43 14 43
-8 0 -13 -7 -20 -19 -20 -27 0 -51 -27 -51 -55 0 -28 24 -44 63 -42 26 2 27 4
27 64 0 43 -5 66 -16 77 -19 20 -25 20 -50 2z m46 -96 c0 -23 -4 -30 -20 -30
-11 0 -23 7 -26 15 -9 23 3 45 26 45 16 0 20 -7 20 -30z"/>
<path d="M4590 7638 c0 -96 18 -104 22 -10 3 59 5 67 23 67 18 0 20 -8 23 -67
4 -85 22 -90 22 -5 0 76 -8 90 -54 92 l-36 1 0 -78z"/>
<path d="M4974 7706 c-11 -8 -15 -18 -10 -23 5 -4 11 -2 13 5 8 21 43 14 43
-8 0 -13 -7 -20 -19 -20 -27 0 -51 -27 -51 -55 0 -28 24 -44 63 -42 26 2 27 4
27 64 0 43 -5 66 -16 77 -19 20 -25 20 -50 2z m46 -96 c0 -23 -4 -30 -20 -30
-23 0 -35 22 -26 45 3 8 15 15 26 15 16 0 20 -7 20 -30z"/>
<path d="M5244 7703 c3 -10 10 -46 17 -80 6 -35 15 -63 20 -63 4 0 13 26 19
57 13 62 23 58 35 -14 4 -24 11 -43 15 -43 5 0 14 26 20 58 6 31 14 67 17 80
3 12 0 22 -6 22 -5 0 -13 -23 -17 -50 -8 -64 -20 -71 -28 -17 -11 72 -23 76
-37 12 -14 -62 -22 -58 -34 18 -3 20 -11 37 -16 37 -6 0 -8 -8 -5 -17z"/>
<path d="M5454 7706 c-11 -8 -15 -18 -10 -23 5 -4 11 -2 13 5 8 21 43 14 43
-8 0 -13 -7 -20 -19 -20 -27 0 -51 -27 -51 -55 0 -28 24 -44 63 -42 26 2 27 4
27 64 0 43 -5 66 -16 77 -19 20 -25 20 -50 2z m46 -96 c0 -23 -4 -30 -20 -30
-11 0 -23 7 -26 15 -9 23 3 45 26 45 16 0 20 -7 20 -30z"/>
<path d="M2795 7249 c-17 -5 -44 -22 -60 -39 -26 -27 -30 -40 -33 -98 -4 -91
15 -121 105 -162 37 -17 71 -36 75 -43 4 -7 8 -33 8 -59 0 -35 -6 -54 -21 -69
-36 -36 -99 -6 -99 48 0 20 -5 23 -40 23 -35 0 -40 -3 -40 -22 1 -41 37 -106
69 -122 38 -20 103 -20 141 -1 45 23 63 68 63 153 0 92 -17 117 -104 154 -66
27 -91 55 -84 93 2 11 4 25 4 32 1 18 31 43 52 43 27 0 59 -35 59 -65 0 -22 4
-25 40 -25 36 0 40 2 40 25 0 90 -89 158 -175 134z"/>
<path d="M1755 7228 c-3 -13 -32 -139 -64 -280 l-58 -258 38 0 c41 0 42 2 54
78 l7 42 58 0 57 0 12 -60 12 -60 38 0 39 0 -20 88 c-10 48 -38 173 -61 277
l-42 190 -32 3 c-27 3 -33 -1 -38 -20z m53 -213 c7 -36 15 -78 18 -95 6 -30 6
-30 -36 -30 -39 0 -42 2 -37 23 4 12 11 55 18 95 7 39 15 72 19 72 3 0 12 -29
18 -65z"/>
<path d="M2170 7154 l0 -95 -22 15 c-27 19 -78 21 -102 3 -24 -18 -35 -77 -36
-192 0 -113 12 -170 40 -185 29 -15 81 -12 102 7 17 15 18 15 18 0 0 -13 9
-17 40 -17 l40 0 0 280 0 280 -40 0 -40 0 0 -96z m-19 -144 c17 -10 19 -22 19
-118 0 -107 -7 -132 -36 -132 -7 0 -20 7 -28 16 -23 22 -23 206 0 228 18 19
20 19 45 6z"/>
<path d="M2352 7213 c3 -36 5 -38 41 -41 l37 -3 0 40 0 41 -41 0 -40 0 3 -37z"/>
<path d="M3992 7213 c3 -36 5 -38 41 -41 l37 -3 0 40 0 41 -41 0 -40 0 3 -37z"/>
<path d="M4490 7150 c0 -53 -2 -60 -20 -60 -16 0 -20 -7 -20 -30 0 -23 4 -30
20 -30 19 0 20 -7 20 -125 0 -173 21 -215 106 -215 21 0 24 5 24 33 0 26 -6
36 -25 45 -25 11 -25 13 -25 137 l0 125 25 0 c21 0 25 5 25 30 0 25 -4 30 -25
30 -24 0 -25 3 -25 60 l0 60 -40 0 -40 0 0 -60z"/>
<path d="M2350 6890 l0 -200 40 0 40 0 0 200 0 200 -40 0 -40 0 0 -200z"/>
<path d="M3060 6938 c0 -164 10 -222 40 -238 29 -15 81 -12 102 7 17 15 18 15
18 0 0 -13 9 -17 40 -17 l40 0 0 200 0 200 -40 0 -40 0 0 -153 c0 -152 -5
-177 -36 -177 -7 0 -20 7 -28 16 -13 13 -16 42 -16 165 l0 149 -40 0 -40 0 0
-152z"/>
<path d="M3436 7077 c-24 -18 -35 -77 -36 -192 0 -113 12 -170 40 -185 29 -15
81 -12 102 7 17 15 18 14 18 -39 0 -43 -4 -57 -16 -62 -22 -9 -51 1 -58 19 -8
21 -76 20 -76 0 0 -28 28 -70 55 -85 32 -17 89 -17 122 1 49 26 53 49 53 309
l0 240 -40 0 c-30 0 -40 -4 -40 -16 0 -14 -2 -14 -22 0 -27 19 -78 21 -102 3z
m105 -67 c17 -10 19 -22 19 -118 0 -107 -7 -132 -36 -132 -7 0 -20 7 -28 16
-23 23 -23 200 1 226 19 21 19 21 44 8z"/>
<path d="M3740 6890 l0 -200 40 0 40 0 0 134 c0 126 2 137 23 161 14 16 34 26
54 28 31 2 33 4 33 40 0 32 -3 37 -24 37 -13 0 -35 -9 -49 -20 -14 -11 -28
-20 -31 -20 -3 0 -6 9 -6 20 0 17 -7 20 -40 20 l-40 0 0 -200z"/>
<path d="M3990 6890 l0 -200 40 0 40 0 0 200 0 200 -40 0 -40 0 0 -200z"/>
<path d="M4221 7077 c-13 -6 -32 -30 -42 -52 l-18 -40 37 -3 c23 -2 40 2 47
11 14 19 47 28 64 18 7 -5 14 -26 15 -47 1 -35 -2 -39 -24 -40 -66 -2 -81 -6
-105 -26 -48 -42 -44 -172 6 -198 31 -17 81 -11 106 12 l23 21 0 -21 c0 -18 6
-22 35 -22 l35 0 0 160 c0 174 -7 203 -51 226 -33 17 -94 17 -128 1z m107
-249 c4 -44 -25 -80 -57 -71 -41 11 -41 80 -1 100 39 20 55 12 58 -29z"/>
<path d="M1890 5720 c0 -89 2 -100 20 -110 14 -7 20 -7 20 0 0 5 -4 10 -10 10
-6 0 -10 40 -10 100 0 60 -4 100 -10 100 -6 0 -10 -40 -10 -100z"/>
<path d="M2120 5710 c0 -120 17 -153 22 -42 3 59 5 67 23 67 18 0 20 -8 23
-67 4 -86 22 -89 22 -4 0 71 -17 101 -51 91 -16 -5 -19 -1 -19 29 0 20 -4 36
-10 36 -6 0 -10 -43 -10 -110z"/>
<path d="M2340 5711 l0 -109 36 3 c44 3 54 17 54 77 0 53 -21 82 -51 73 -16
-5 -19 -1 -19 29 0 20 -4 36 -10 36 -6 0 -10 -43 -10 -109z m65 -31 c0 -48 -2
-55 -20 -55 -16 0 -21 8 -23 44 -4 54 3 73 25 69 15 -3 18 -14 18 -58z"/>
<path d="M2750 5710 c0 -120 17 -153 22 -42 3 59 5 67 23 67 18 0 20 -8 23
-67 4 -86 22 -89 22 -4 0 71 -17 101 -51 91 -16 -5 -19 -1 -19 29 0 20 -4 36
-10 36 -6 0 -10 -43 -10 -110z"/>
<path d="M3180 5805 c0 -8 5 -15 10 -15 6 0 10 7 10 15 0 8 -4 15 -10 15 -5 0
-10 -7 -10 -15z"/>
<path d="M3260 5720 c0 -89 2 -100 20 -110 14 -7 20 -7 20 0 0 5 -4 10 -10 10
-6 0 -10 40 -10 100 0 60 -4 100 -10 100 -6 0 -10 -40 -10 -100z"/>
<path d="M4200 5720 c0 -89 2 -100 20 -110 14 -7 20 -7 20 0 0 5 -4 10 -10 10
-6 0 -10 40 -10 100 0 60 -4 100 -10 100 -6 0 -10 -40 -10 -100z"/>
<path d="M4720 5805 c0 -8 5 -15 10 -15 6 0 10 7 10 15 0 8 -4 15 -10 15 -5 0
-10 -7 -10 -15z"/>
<path d="M4800 5710 c0 -67 4 -110 10 -110 6 0 10 9 10 19 0 24 10 51 19 51 4
0 13 -16 20 -35 7 -19 17 -35 22 -35 12 0 12 1 -10 51 -20 43 -20 44 0 76 12
18 16 33 10 33 -6 0 -21 -19 -33 -42 l-23 -43 -3 73 c-5 115 -22 85 -22 -38z"/>
<path d="M1661 5783 c0 -13 -5 -23 -10 -23 -8 0 -5 -80 4 -126 3 -12 12 -25
21 -28 24 -9 33 3 11 15 -23 13 -25 119 -2 119 8 0 15 5 15 10 0 6 -6 10 -14
10 -8 0 -17 10 -19 23 l-4 22 -2 -22z"/>
<path d="M1758 5749 c-14 -8 -18 -23 -18 -69 0 -49 3 -61 20 -70 29 -16 60 -3
60 23 -1 20 -2 21 -14 5 -22 -29 -46 -23 -46 12 0 28 3 30 36 30 36 0 36 1 30
32 -3 17 -7 32 -9 34 -11 9 -45 11 -59 3z m50 -31 c3 -13 -3 -18 -22 -18 -20
0 -26 5 -26 21 0 15 5 20 22 17 13 -2 24 -11 26 -20z"/>
<path d="M1994 5746 c-11 -8 -15 -18 -10 -23 5 -4 11 -2 13 5 8 21 43 14 43
-8 0 -13 -7 -20 -19 -20 -27 0 -51 -27 -51 -55 0 -28 24 -44 63 -42 26 2 27 4
27 64 0 43 -5 66 -16 77 -19 20 -25 20 -50 2z m46 -96 c0 -23 -4 -30 -20 -30
-23 0 -35 22 -26 45 3 8 15 15 26 15 16 0 20 -7 20 -30z"/>
<path d="M2508 5749 c-14 -8 -18 -23 -18 -69 0 -49 3 -61 20 -70 29 -16 60 -3
60 23 -1 20 -2 21 -14 5 -22 -29 -46 -23 -46 12 0 28 3 30 36 30 36 0 36 1 30
32 -3 17 -7 32 -9 34 -11 9 -45 11 -59 3z m50 -31 c3 -13 -3 -18 -22 -18 -20
0 -26 5 -26 21 0 15 5 20 22 17 13 -2 24 -11 26 -20z"/>
<path d="M2630 5678 c0 -45 4 -78 10 -78 6 0 10 29 10 66 0 57 3 67 20 71 30
8 24 20 -10 20 l-30 0 0 -79z"/>
<path d="M2914 5746 c-11 -8 -15 -18 -10 -23 5 -4 11 -2 13 5 8 21 43 14 43
-8 0 -13 -7 -20 -19 -20 -27 0 -51 -27 -51 -55 0 -28 24 -44 63 -42 26 2 27 4
27 64 0 43 -5 66 -16 77 -19 20 -25 20 -50 2z m46 -96 c0 -23 -4 -30 -20 -30
-23 0 -35 22 -26 45 3 8 15 15 26 15 16 0 20 -7 20 -30z"/>
<path d="M3052 5751 c-23 -14 -10 -64 21 -79 36 -17 37 -52 2 -52 -16 0 -25 6
-25 15 0 8 -4 15 -10 15 -15 0 -12 -16 6 -34 18 -19 28 -20 55 -6 11 6 19 21
19 36 0 19 -8 28 -35 40 -36 15 -46 40 -20 50 8 4 22 1 30 -6 12 -10 15 -10
15 3 0 23 -34 34 -58 18z"/>
<path d="M3180 5680 c0 -47 4 -80 10 -80 6 0 10 33 10 80 0 47 -4 80 -10 80
-6 0 -10 -33 -10 -80z"/>
<path d="M3420 5678 c0 -45 4 -78 10 -78 6 0 10 28 10 65 0 50 4 67 15 72 24
9 29 -2 33 -72 6 -87 22 -83 22 6 0 62 2 70 18 67 14 -3 18 -16 20 -71 2 -37
7 -67 12 -67 14 0 13 137 -1 146 -6 3 -40 7 -75 8 l-64 1 0 -77z"/>
<path d="M3648 5749 c-14 -8 -18 -23 -18 -69 0 -49 3 -61 20 -70 29 -16 60 -3
60 23 -1 20 -2 21 -14 5 -22 -29 -46 -23 -46 12 0 28 3 30 36 30 36 0 36 1 30
32 -3 17 -7 32 -9 34 -11 9 -45 11 -59 3z m50 -31 c3 -13 -3 -18 -22 -18 -20
0 -26 5 -26 21 0 15 5 20 22 17 13 -2 24 -11 26 -20z"/>
<path d="M3780 5678 c0 -96 18 -104 22 -10 3 59 5 67 23 67 18 0 20 -8 23 -67
4 -85 22 -90 22 -5 0 76 -8 90 -54 92 l-36 1 0 -78z"/>
<path d="M3910 5753 c0 -5 9 -40 19 -80 18 -69 18 -123 0 -123 -5 0 -9 -5 -9
-10 0 -7 6 -7 18 -1 13 7 25 39 40 108 25 111 25 113 13 113 -5 0 -12 -22 -16
-48 -11 -78 -22 -83 -35 -14 -7 34 -17 62 -21 62 -5 0 -9 -3 -9 -7z"/>
<path d="M4078 5749 c-14 -8 -18 -23 -18 -69 0 -49 3 -61 20 -70 29 -16 60 -3
60 23 -1 20 -2 21 -14 5 -22 -29 -46 -23 -46 12 0 28 3 30 36 30 36 0 36 1 30
32 -3 17 -7 32 -9 34 -11 9 -45 11 -59 3z m50 -31 c3 -13 -3 -18 -22 -18 -20
0 -26 5 -26 21 0 15 5 20 22 17 13 -2 24 -11 26 -20z"/>
<path d="M4308 5749 c-14 -8 -18 -23 -18 -69 0 -49 3 -61 20 -70 29 -16 60 -3
60 23 -1 20 -2 21 -14 5 -22 -29 -46 -23 -46 12 0 28 3 30 36 30 36 0 36 1 30
32 -3 17 -7 32 -9 34 -11 9 -45 11 -59 3z m50 -31 c3 -13 -3 -18 -22 -18 -20
0 -26 5 -26 21 0 15 5 20 22 17 13 -2 24 -11 26 -20z"/>
<path d="M4452 5751 c-23 -14 -10 -64 21 -79 36 -17 37 -52 2 -52 -16 0 -25 6
-25 15 0 8 -4 15 -10 15 -15 0 -12 -16 6 -34 18 -19 28 -20 55 -6 11 6 19 21
19 36 0 19 -8 28 -35 40 -36 15 -46 40 -20 50 8 4 22 1 30 -6 12 -10 15 -10
15 3 0 23 -34 34 -58 18z"/>
<path d="M4594 5746 c-11 -8 -15 -18 -10 -23 5 -4 11 -2 13 5 8 21 43 14 43
-8 0 -13 -7 -20 -19 -20 -27 0 -51 -27 -51 -55 0 -28 24 -44 63 -42 26 2 27 4
27 64 0 43 -5 66 -16 77 -19 20 -25 20 -50 2z m46 -96 c0 -23 -4 -30 -20 -30
-23 0 -35 22 -26 45 3 8 15 15 26 15 16 0 20 -7 20 -30z"/>
<path d="M4720 5680 c0 -47 4 -80 10 -80 6 0 10 33 10 80 0 47 -4 80 -10 80
-6 0 -10 -33 -10 -80z"/>
<path d="M4964 5746 c-11 -8 -15 -18 -10 -23 5 -4 11 -2 13 5 8 21 43 14 43
-8 0 -13 -7 -20 -19 -20 -27 0 -51 -27 -51 -55 0 -28 24 -44 63 -42 26 2 27 4
27 64 0 43 -5 66 -16 77 -19 20 -25 20 -50 2z m46 -96 c0 -23 -4 -30 -20 -30
-23 0 -35 22 -26 45 3 8 15 15 26 15 16 0 20 -7 20 -30z"/>
<path d="M5090 5678 c0 -96 18 -104 22 -10 3 59 5 67 23 67 18 0 20 -8 23 -67
4 -85 22 -90 22 -5 0 76 -8 90 -54 92 l-36 1 0 -78z"/>
<path d="M1662 5188 c-7 -7 -12 -18 -12 -26 0 -12 3 -12 15 -2 13 11 15 0 15
-89 0 -83 3 -101 15 -101 12 0 15 19 15 115 0 104 -2 115 -18 115 -10 0 -23
-5 -30 -12z"/>
<path d="M1893 5188 c-32 -41 -20 -88 26 -108 26 -10 31 -18 31 -46 0 -28 -4
-34 -20 -34 -11 0 -23 7 -26 15 -7 17 -34 21 -34 5 0 -17 39 -50 59 -50 29 0
51 27 51 63 0 40 -7 50 -47 71 -35 18 -43 45 -18 66 16 14 35 6 35 -16 0 -8 7
-14 15 -14 18 0 19 14 5 41 -12 22 -62 26 -77 7z"/>
<path d="M2350 5160 c0 -36 -2 -40 -18 -31 -34 18 -43 -1 -40 -80 l3 -74 43
-2 42 -1 0 114 c0 95 -3 114 -15 114 -11 0 -15 -11 -15 -40z m0 -106 c0 -47
-3 -55 -17 -52 -32 6 -29 108 2 108 11 0 15 -13 15 -56z"/>
<path d="M2040 5156 c0 -13 -6 -27 -12 -30 -10 -5 -10 -7 0 -12 7 -4 12 -27
12 -63 0 -52 11 -81 32 -81 4 0 8 7 8 15 0 8 -4 15 -10 15 -15 0 -13 107 3
113 10 4 10 7 0 18 -7 7 -13 21 -13 31 0 10 -4 18 -10 18 -5 0 -10 -11 -10
-24z"/>
<path d="M3000 5144 c0 -29 -3 -35 -16 -30 -29 11 -44 -13 -44 -69 0 -59 11
-74 52 -72 l28 2 0 103 c0 61 -4 102 -10 102 -5 0 -10 -16 -10 -36z m-5 -99
c0 -39 -4 -50 -17 -53 -15 -3 -18 5 -18 53 0 48 3 56 18 53 13 -3 17 -14 17
-53z"/>
<path d="M2132 5053 l3 -78 43 -2 42 -1 0 79 c0 64 -3 79 -15 79 -12 0 -15
-14 -15 -66 0 -57 -2 -65 -17 -62 -15 3 -19 16 -21 66 -2 34 -7 62 -13 62 -6
0 -9 -31 -7 -77z"/>
<path d="M2430 5124 c0 -4 9 -41 21 -82 19 -67 19 -75 5 -97 -20 -30 -20 -35
-1 -35 20 0 30 22 50 115 10 44 20 85 22 92 3 7 -2 13 -10 13 -10 0 -18 -14
-22 -42 -11 -64 -18 -68 -30 -14 -5 27 -16 51 -22 54 -7 2 -13 0 -13 -4z"/>
<path d="M2660 5008 c0 -65 4 -108 10 -108 6 0 10 18 10 41 0 34 3 40 16 35
29 -11 44 13 44 70 0 57 -9 69 -52 69 l-28 0 0 -107z m60 37 c0 -48 -2 -55
-20 -55 -17 0 -20 7 -20 48 0 51 5 62 27 62 9 0 13 -16 13 -55z"/>
<path d="M2813 5113 c-7 -2 -13 -11 -13 -19 0 -12 4 -12 20 -2 17 11 22 10 30
-2 14 -22 13 -25 -22 -35 -58 -17 -47 -86 13 -82 29 2 29 3 29 63 0 73 -16 94
-57 77z m45 -95 c-4 -30 -48 -39 -48 -10 0 10 3 22 7 25 3 4 15 7 25 7 14 0
19 -6 16 -22z"/>
<path d="M3093 5113 c-7 -2 -13 -11 -13 -19 0 -12 4 -12 20 -2 17 11 22 10 30
-2 14 -22 13 -25 -22 -35 -58 -17 -47 -86 13 -82 29 2 29 3 29 63 0 73 -16 94
-57 77z m45 -95 c-4 -30 -48 -39 -48 -10 0 10 3 22 7 25 3 4 15 7 25 7 14 0
19 -6 16 -22z"/>
<path d="M1660 4265 l0 -205 30 0 30 0 0 68 c1 37 7 78 14 92 l14 25 11 -25
c6 -14 21 -54 34 -90 20 -56 28 -65 50 -68 15 -2 27 1 27 6 0 6 -20 62 -45
126 l-45 117 40 79 40 80 -28 0 c-25 0 -31 -8 -69 -87 l-41 -88 -1 88 -1 87
-30 0 -30 0 0 -205z"/>
<path d="M3275 4447 c-32 -27 -44 -92 -25 -138 10 -22 28 -38 69 -57 55 -27
56 -28 59 -74 3 -39 0 -49 -18 -58 -31 -16 -60 -3 -67 31 -4 22 -11 29 -29 29
-20 0 -24 -5 -24 -31 0 -47 47 -89 100 -89 52 0 85 31 95 88 13 82 -10 122
-88 153 -40 16 -42 19 -42 59 0 30 5 46 18 54 22 14 51 -3 55 -33 3 -16 10
-21 34 -21 29 0 30 2 24 33 -14 71 -105 103 -161 54z"/>
<path d="M2277 4341 c-29 -15 -37 -16 -37 -5 0 8 -10 14 -25 14 l-25 0 0 -145
0 -145 25 0 25 0 0 100 c0 87 3 103 20 120 11 11 29 20 40 20 16 0 20 7 20 30
0 17 -1 30 -3 30 -1 0 -19 -9 -40 -19z"/>
<path d="M2424 4350 c-29 -12 -54 -49 -54 -80 0 -36 25 -67 65 -80 42 -14 62
-44 44 -66 -15 -18 -48 -18 -55 1 -4 8 -17 15 -30 15 -33 0 -32 -33 2 -59 51
-40 125 -17 140 44 10 41 -12 78 -64 105 -32 17 -47 31 -47 45 0 25 37 32 55
10 18 -22 50 -19 50 5 0 20 -32 60 -49 60 -5 0 -15 2 -23 4 -7 3 -23 1 -34 -4z"/>
<path d="M2914 4350 c-29 -12 -54 -49 -54 -80 0 -36 25 -67 65 -80 42 -14 62
-44 44 -66 -15 -18 -48 -18 -55 1 -4 8 -17 15 -30 15 -33 0 -32 -33 2 -59 51
-40 125 -17 140 44 10 41 -12 78 -64 105 -32 17 -47 31 -47 45 0 25 37 32 55
10 18 -22 50 -19 50 5 0 20 -32 60 -49 60 -5 0 -15 2 -23 4 -7 3 -23 1 -34 -4z"/>
<path d="M3564 4350 c-24 -9 -54 -47 -54 -67 0 -19 40 -16 62 4 24 22 52 7 56
-31 3 -24 1 -26 -37 -26 -58 0 -81 -26 -81 -89 0 -56 17 -81 57 -81 15 0 35 7
45 17 17 15 18 15 18 0 0 -11 8 -17 25 -17 l25 0 0 125 c0 112 -2 127 -20 145
-11 11 -26 20 -34 20 -8 0 -20 2 -28 4 -7 3 -23 1 -34 -4z m66 -184 c0 -39
-11 -56 -36 -56 -17 0 -25 7 -30 25 -8 31 10 55 42 55 19 0 24 -5 24 -24z"/>
<path d="M3814 4350 c-29 -12 -54 -49 -54 -80 0 -36 25 -67 65 -80 42 -14 62
-44 44 -66 -15 -18 -48 -18 -55 1 -4 8 -17 15 -30 15 -33 0 -32 -33 2 -59 51
-40 125 -17 140 44 10 41 -12 78 -64 105 -32 17 -47 31 -47 45 0 25 37 32 55
10 18 -22 50 -19 50 5 0 20 -32 60 -49 60 -5 0 -15 2 -23 4 -7 3 -23 1 -34 -4z"/>
<path d="M4044 4350 c-29 -12 -54 -49 -54 -80 0 -36 25 -67 65 -80 42 -14 62
-44 44 -66 -15 -18 -48 -18 -55 1 -4 8 -17 15 -30 15 -33 0 -32 -33 2 -59 51
-40 125 -17 140 44 10 41 -12 78 -64 105 -32 17 -47 31 -47 45 0 25 37 32 55
10 18 -22 50 -19 50 5 0 20 -32 60 -49 60 -5 0 -15 2 -23 4 -7 3 -23 1 -34 -4z"/>
<path d="M1930 4221 c0 -104 3 -133 16 -145 18 -18 47 -20 75 -6 13 7 19 7 19
0 0 -5 14 -10 30 -10 l30 0 0 145 0 145 -30 0 -30 0 0 -114 c0 -96 -3 -115
-16 -120 -35 -13 -44 12 -44 125 l0 109 -25 0 -25 0 0 -129z"/>
<path d="M2620 4221 c0 -104 3 -133 16 -145 18 -18 47 -20 75 -6 13 7 19 7 19
0 0 -5 14 -10 30 -10 l30 0 0 145 0 145 -30 0 -30 0 0 -114 c0 -96 -3 -115
-16 -120 -35 -13 -44 12 -44 125 l0 109 -25 0 -25 0 0 -129z"/>
<path d="M13046 4034 c-16 -16 -21 -34 -10 -34 4 0 12 7 19 17 14 19 35 10 35
-15 0 -9 -14 -39 -30 -67 -16 -27 -30 -53 -30 -57 0 -5 18 -8 40 -8 22 0 40 5
40 10 0 6 -11 10 -25 10 -14 0 -25 2 -25 4 0 2 12 27 27 55 22 43 24 55 15 76
-13 29 -34 32 -56 9z"/>
<path d="M13176 4034 c-27 -27 -13 -94 20 -94 13 0 13 -4 -1 -30 -17 -33 -18
-40 -6 -40 12 0 51 98 51 129 0 47 -34 65 -64 35z m44 -40 c0 -28 -3 -35 -17
-32 -31 6 -29 68 2 68 11 0 15 -10 15 -36z"/>
<path d="M13335 4039 c-6 -19 -35 -157 -35 -172 0 -7 3 -7 9 -1 11 12 45 174
37 181 -3 3 -8 0 -11 -8z"/>
<path d="M13416 4034 c-11 -10 -16 -34 -16 -74 0 -58 15 -90 44 -90 26 0 36
26 36 90 0 84 -25 113 -64 74z m42 -78 c3 -61 1 -67 -15 -64 -14 2 -19 15 -21
57 -4 61 3 84 21 79 7 -3 13 -29 15 -72z"/>
<path d="M13552 4041 c-8 -5 -13 -23 -11 -42 1 -19 -1 -42 -5 -51 -19 -44 16
-94 52 -72 13 9 17 26 19 80 1 85 -15 111 -55 85z m38 -36 c0 -25 -23 -35 -35
-15 -10 16 2 40 20 40 9 0 15 -9 15 -25z m0 -81 c0 -28 -3 -35 -17 -32 -31 6
-29 68 2 68 11 0 15 -10 15 -36z"/>
<path d="M13705 4039 c-6 -19 -35 -157 -35 -172 0 -7 3 -7 9 -1 11 12 45 174
37 181 -3 3 -8 0 -11 -8z"/>
<path d="M13776 4034 c-16 -16 -21 -34 -10 -34 4 0 12 7 19 17 14 19 35 10 35
-15 0 -9 -14 -39 -30 -67 -16 -27 -30 -53 -30 -57 0 -5 18 -8 40 -8 22 0 40 5
40 10 0 6 -11 10 -25 10 -14 0 -25 2 -25 4 0 2 12 27 27 55 22 43 24 55 15 76
-13 29 -34 32 -56 9z"/>
<path d="M13916 4034 c-11 -10 -16 -34 -16 -74 0 -58 15 -90 44 -90 26 0 36
26 36 90 0 84 -25 113 -64 74z m42 -78 c3 -61 1 -67 -15 -64 -14 2 -19 15 -21
57 -4 61 3 84 21 79 7 -3 13 -29 15 -72z"/>
<path d="M14046 4034 c-16 -16 -21 -34 -10 -34 4 0 12 7 19 17 14 19 35 10 35
-15 0 -9 -14 -39 -30 -67 -16 -27 -30 -53 -30 -57 0 -5 18 -8 40 -8 22 0 40 5
40 10 0 6 -11 10 -25 10 -14 0 -25 2 -25 4 0 2 12 27 27 55 22 43 24 55 15 76
-13 29 -34 32 -56 9z"/>
<path d="M14186 4034 c-11 -10 -16 -34 -16 -74 0 -58 15 -90 44 -90 26 0 36
26 36 90 0 84 -25 113 -64 74z m42 -78 c3 -61 1 -67 -15 -64 -14 2 -19 15 -21
57 -4 61 3 84 21 79 7 -3 13 -29 15 -72z"/>
<path d="M1650 3420 c0 -91 3 -110 15 -110 11 0 15 12 15 44 0 64 17 66 42 7
11 -28 25 -51 29 -51 12 0 12 2 -17 69 l-26 60 26 46 c15 25 22 45 17 45 -6 0
-24 -24 -41 -52 l-30 -53 0 53 c0 39 -4 52 -15 52 -12 0 -15 -19 -15 -110z"/>
<path d="M2580 3515 c0 -8 5 -15 10 -15 6 0 10 7 10 15 0 8 -4 15 -10 15 -5 0
-10 -7 -10 -15z"/>
<path d="M2820 3515 c0 -8 5 -15 10 -15 6 0 10 7 10 15 0 8 -4 15 -10 15 -5 0
-10 -7 -10 -15z"/>
<path d="M3790 3420 c0 -67 4 -110 10 -110 6 0 10 9 10 19 0 24 10 51 19 51 4
0 13 -16 20 -35 7 -19 17 -35 22 -35 12 0 12 1 -10 51 -20 43 -20 44 0 76 12
18 16 33 10 33 -6 0 -21 -19 -33 -42 l-23 -43 -3 73 c-5 115 -22 85 -22 -38z"/>
<path d="M4390 3494 c0 -30 -3 -36 -19 -31 -37 9 -51 -10 -51 -73 0 -64 6 -72
56 -76 l34 -2 0 109 c0 66 -4 109 -10 109 -5 0 -10 -16 -10 -36z m-4 -79 c9
-49 -2 -85 -26 -85 -18 0 -20 7 -20 60 0 53 2 60 20 60 14 0 21 -9 26 -35z"/>
<path d="M5200 3494 c0 -30 -3 -36 -19 -31 -37 9 -51 -10 -51 -73 0 -64 6 -72
56 -76 l34 -2 0 109 c0 66 -4 109 -10 109 -5 0 -10 -16 -10 -36z m-4 -79 c9
-49 -2 -85 -26 -85 -18 0 -20 7 -20 60 0 53 2 60 20 60 14 0 21 -9 26 -35z"/>
<path d="M5928 3519 c-13 -7 -18 -22 -18 -50 0 -36 3 -41 35 -55 31 -12 35
-19 35 -49 0 -30 -3 -35 -24 -35 -16 0 -27 7 -31 20 -7 21 -25 28 -25 10 0
-14 38 -50 53 -50 31 0 48 25 45 65 -2 31 -9 42 -33 55 -22 12 -31 25 -33 48
-3 27 0 32 18 32 13 0 24 -8 27 -20 6 -22 23 -28 23 -7 -1 32 -43 53 -72 36z"/>
<path d="M1810 3401 c0 -75 9 -90 52 -88 28 2 28 2 28 80 0 45 -4 77 -10 77
-6 0 -10 -30 -10 -70 0 -63 -2 -70 -20 -70 -18 0 -20 7 -20 70 0 40 -4 70 -10
70 -6 0 -10 -30 -10 -69z"/>
<path d="M1960 3388 c0 -45 4 -78 10 -78 6 0 10 29 10 66 0 57 3 67 20 71 30
8 24 20 -10 20 l-30 0 0 -79z"/>
<path d="M2092 3461 c-23 -14 -10 -64 21 -79 36 -17 37 -52 2 -52 -16 0 -25 6
-25 15 0 8 -4 15 -10 15 -15 0 -12 -16 6 -34 18 -19 28 -20 55 -6 11 6 19 21
19 36 0 19 -8 28 -35 40 -36 15 -46 40 -20 50 8 4 22 1 30 -6 12 -10 15 -10
15 3 0 23 -34 34 -58 18z"/>
<path d="M2220 3401 c0 -75 9 -90 52 -88 28 2 28 2 28 80 0 45 -4 77 -10 77
-6 0 -10 -30 -10 -70 0 -63 -2 -70 -20 -70 -18 0 -20 7 -20 70 0 40 -4 70 -10
70 -6 0 -10 -30 -10 -69z"/>
<path d="M2382 3461 c-23 -14 -10 -64 21 -79 36 -17 37 -52 2 -52 -16 0 -25 6
-25 15 0 8 -4 15 -10 15 -15 0 -12 -16 6 -34 18 -19 28 -20 55 -6 11 6 19 21
19 36 0 19 -8 28 -35 40 -36 15 -46 40 -20 50 8 4 22 1 30 -6 12 -10 15 -10
15 3 0 23 -34 34 -58 18z"/>
<path d="M2580 3390 c0 -47 4 -80 10 -80 6 0 10 33 10 80 0 47 -4 80 -10 80
-6 0 -10 -33 -10 -80z"/>
<path d="M2670 3388 c0 -96 18 -104 22 -10 3 59 5 67 23 67 18 0 20 -8 23 -67
4 -85 22 -90 22 -5 0 76 -8 90 -54 92 l-36 1 0 -78z"/>
<path d="M2820 3390 c0 -47 4 -80 10 -80 6 0 10 33 10 80 0 47 -4 80 -10 80
-6 0 -10 -33 -10 -80z"/>
<path d="M2980 3388 c0 -45 4 -78 10 -78 6 0 10 28 10 65 0 50 4 67 15 72 24
9 29 -2 33 -72 6 -87 22 -83 22 6 0 62 2 70 18 67 14 -3 18 -16 20 -71 2 -37
7 -67 12 -67 14 0 13 137 -1 146 -6 3 -40 7 -75 8 l-64 1 0 -77z"/>
<path d="M3218 3459 c-14 -8 -18 -23 -18 -69 0 -49 3 -61 20 -70 29 -16 60 -3
60 23 -1 20 -2 21 -14 5 -22 -29 -46 -23 -46 12 0 28 3 30 36 30 36 0 36 1 30
32 -3 17 -7 32 -9 34 -11 9 -45 11 -59 3z m50 -31 c3 -13 -3 -18 -22 -18 -20
0 -26 5 -26 21 0 15 5 20 22 17 13 -2 24 -11 26 -20z"/>
<path d="M3340 3388 c0 -96 18 -104 22 -10 3 59 5 67 23 67 18 0 20 -8 23 -67
4 -85 22 -90 22 -5 0 76 -8 90 -54 92 l-36 1 0 -78z"/>
<path d="M3518 3459 c-28 -16 -26 -124 2 -139 14 -8 26 -8 40 0 21 11 28 40
10 40 -5 0 -10 -7 -10 -15 0 -8 -9 -15 -20 -15 -18 0 -20 7 -20 60 0 53 2 60
20 60 11 0 20 -7 20 -15 0 -8 5 -15 10 -15 18 0 11 29 -9 40 -23 12 -22 12
-43 -1z"/>
<path d="M3654 3456 c-11 -8 -15 -18 -10 -23 5 -4 11 -2 13 5 8 21 43 14 43
-8 0 -13 -7 -20 -19 -20 -27 0 -51 -27 -51 -55 0 -28 24 -44 63 -42 26 2 27 4
27 64 0 43 -5 66 -16 77 -19 20 -25 20 -50 2z m46 -96 c0 -23 -4 -30 -20 -30
-11 0 -23 7 -26 15 -9 23 3 45 26 45 16 0 20 -7 20 -30z"/>
<path d="M3940 3401 c0 -75 9 -90 52 -88 28 2 28 2 28 80 0 45 -4 77 -10 77
-6 0 -10 -30 -10 -70 0 -63 -2 -70 -20 -70 -18 0 -20 7 -20 70 0 40 -4 70 -10
70 -6 0 -10 -30 -10 -69z"/>
<path d="M4090 3354 c0 -69 4 -114 10 -114 6 0 10 18 10 41 0 35 2 40 19 34
30 -9 51 20 51 73 0 60 -10 74 -54 77 l-36 3 0 -114z m65 36 c0 -48 -2 -55
-20 -55 -16 0 -21 8 -23 44 -4 54 3 73 25 69 15 -3 18 -14 18 -58z"/>
<path d="M4484 3456 c-11 -8 -15 -18 -10 -23 5 -4 11 -2 13 5 8 21 43 14 43
-8 0 -13 -7 -20 -19 -20 -27 0 -51 -27 -51 -55 0 -28 24 -44 63 -42 26 2 27 4
27 64 0 43 -5 66 -16 77 -19 20 -25 20 -50 2z m46 -96 c0 -23 -4 -30 -20 -30
-11 0 -23 7 -26 15 -9 23 3 45 26 45 16 0 20 -7 20 -30z"/>
<path d="M4632 3461 c-23 -14 -10 -64 21 -79 36 -17 37 -52 2 -52 -16 0 -25 6
-25 15 0 8 -4 15 -10 15 -15 0 -12 -16 6 -34 18 -19 28 -20 55 -6 11 6 19 21
19 36 0 19 -8 28 -35 40 -36 15 -46 40 -20 50 8 4 22 1 30 -6 12 -10 15 -10
15 3 0 23 -34 34 -58 18z"/>
<path d="M4774 3456 c-11 -8 -15 -18 -10 -23 5 -4 11 -2 13 5 8 21 43 14 43
-8 0 -13 -7 -20 -19 -20 -27 0 -51 -27 -51 -55 0 -28 24 -44 63 -42 26 2 27 4
27 64 0 43 -5 66 -16 77 -19 20 -25 20 -50 2z m46 -96 c0 -23 -4 -30 -20 -30
-11 0 -23 7 -26 15 -9 23 3 45 26 45 16 0 20 -7 20 -30z"/>
<path d="M4910 3388 c0 -45 4 -78 10 -78 6 0 10 29 10 66 0 57 3 67 20 71 30
8 24 20 -10 20 l-30 0 0 -79z"/>
<path d="M5304 3456 c-11 -8 -15 -18 -10 -23 5 -4 11 -2 13 5 8 21 43 14 43
-8 0 -13 -7 -20 -19 -20 -27 0 -51 -27 -51 -55 0 -28 24 -44 63 -42 26 2 27 4
27 64 0 43 -5 66 -16 77 -19 20 -25 20 -50 2z m46 -96 c0 -23 -4 -30 -20 -30
-23 0 -35 22 -26 45 3 8 15 15 26 15 16 0 20 -7 20 -30z"/>
<path d="M5452 3461 c-23 -14 -10 -64 21 -79 36 -17 37 -52 2 -52 -16 0 -25 6
-25 15 0 8 -4 15 -10 15 -15 0 -12 -16 6 -34 18 -19 28 -20 55 -6 11 6 19 21
19 36 0 19 -8 28 -35 40 -36 15 -46 40 -20 50 8 4 22 1 30 -6 12 -10 15 -10
15 3 0 23 -34 34 -58 18z"/>
<path d="M5594 3456 c-11 -8 -15 -18 -10 -23 5 -4 11 -2 13 5 8 21 43 14 43
-8 0 -13 -7 -20 -19 -20 -27 0 -51 -27 -51 -55 0 -28 24 -44 63 -42 26 2 27 4
27 64 0 43 -5 66 -16 77 -19 20 -25 20 -50 2z m46 -96 c0 -23 -4 -30 -20 -30
-23 0 -35 22 -26 45 3 8 15 15 26 15 16 0 20 -7 20 -30z"/>
<path d="M5720 3388 c0 -45 4 -78 10 -78 6 0 10 29 10 66 0 57 3 67 20 71 30
8 24 20 -10 20 l-30 0 0 -79z"/>
<path d="M6084 3456 c-11 -8 -15 -18 -10 -23 5 -4 11 -2 13 5 8 21 43 14 43
-8 0 -13 -7 -20 -19 -20 -27 0 -51 -27 -51 -55 0 -28 24 -44 63 -42 26 2 27 4
27 64 0 43 -5 66 -16 77 -19 20 -25 20 -50 2z m46 -96 c0 -23 -4 -30 -20 -30
-23 0 -35 22 -26 45 3 8 15 15 26 15 16 0 20 -7 20 -30z"/>
<path d="M6232 3461 c-23 -14 -10 -64 21 -79 36 -17 37 -52 2 -52 -16 0 -25 6
-25 15 0 8 -4 15 -10 15 -15 0 -12 -16 6 -34 18 -19 28 -20 55 -6 11 6 19 21
19 36 0 19 -8 28 -35 40 -36 15 -46 40 -20 50 8 4 22 1 30 -6 12 -10 15 -10
15 3 0 23 -34 34 -58 18z"/>
<path d="M6382 3461 c-23 -14 -10 -64 21 -79 36 -17 37 -52 2 -52 -16 0 -25 6
-25 15 0 8 -4 15 -10 15 -15 0 -12 -16 6 -34 18 -19 28 -20 55 -6 11 6 19 21
19 36 0 19 -8 28 -35 40 -36 15 -46 40 -20 50 8 4 22 1 30 -6 12 -10 15 -10
15 3 0 23 -34 34 -58 18z"/>
<path d="M13201 3453 c-31 -16 -61 -57 -49 -69 4 -3 26 7 50 22 89 58 245 37
283 -37 42 -80 3 -138 -131 -200 -96 -44 -169 -89 -278 -172 -121 -92 -166
-149 -146 -186 14 -27 42 -34 89 -21 53 14 108 60 278 228 79 78 154 144 167
148 36 9 66 -12 66 -44 -1 -39 -32 -104 -75 -151 -33 -36 -35 -42 -19 -48 12
-4 50 10 115 45 54 29 100 52 104 52 4 0 -3 -16 -15 -35 -28 -46 -24 -79 12
-83 28 -3 101 29 114 50 4 6 -8 2 -28 -10 -19 -12 -47 -22 -62 -22 l-27 0 17
33 c9 17 45 60 80 94 35 33 64 66 64 72 0 18 -72 -14 -179 -78 -55 -34 -103
-61 -105 -61 -3 0 6 24 19 53 33 71 33 119 -1 146 -15 12 -35 21 -46 21 -17 0
-17 3 8 35 34 45 43 114 20 151 -10 14 -45 39 -79 55 -52 24 -75 29 -137 29
-49 0 -87 -6 -109 -17z m139 -342 c0 -15 -216 -218 -272 -255 -50 -34 -108
-48 -108 -26 0 18 92 111 156 156 69 49 205 133 217 134 4 0 7 -4 7 -9z"/>
<path d="M5010 3420 c0 -5 14 -10 30 -10 17 0 30 5 30 10 0 6 -13 10 -30 10
-16 0 -30 -4 -30 -10z"/>
<path d="M15285 3343 c-17 -83 -28 -102 -92 -170 -92 -96 -157 -143 -196 -143
-51 0 -125 -55 -104 -77 4 -3 29 4 56 16 27 11 52 21 55 21 3 0 6 -22 6 -49 0
-31 5 -53 15 -61 8 -7 15 -20 15 -28 0 -13 3 -12 15 5 8 11 27 24 42 28 66 16
125 97 94 128 -18 18 -73 -16 -106 -64 -16 -24 -31 -46 -32 -48 -2 -3 -8 0
-13 5 -6 6 -7 30 -4 57 6 44 12 52 82 108 65 53 78 59 106 54 29 -6 30 -5 12
10 -63 49 142 68 372 33 39 -6 72 -13 72 -15 0 -16 -104 -134 -175 -199 -79
-71 -102 -104 -74 -104 12 0 150 130 203 190 17 19 48 53 69 74 l37 39 98 -7
c53 -3 135 -2 182 4 47 5 148 14 225 20 217 15 330 33 319 51 -3 5 -9 7 -13 5
-16 -10 -237 -38 -371 -47 -80 -5 -185 -11 -235 -15 -49 -3 -108 -2 -130 3
l-39 9 54 31 c65 36 107 78 90 88 -20 13 -54 -4 -135 -65 -57 -43 -86 -59
-100 -55 -42 12 -264 27 -342 23 -46 -1 -83 -3 -83 -3 0 0 14 27 30 59 33 64
39 116 15 116 -8 0 -17 -12 -20 -27z m-115 -377 c0 -20 -65 -68 -86 -64 -15 2
-12 9 15 41 33 37 71 49 71 23z"/>
<path d="M15135 3306 c-43 -45 -160 -128 -234 -166 -69 -34 -136 -51 -212 -52
-80 -1 -93 -21 -17 -26 76 -5 243 47 321 101 60 41 31 5 -108 -136 -128 -129
-165 -177 -137 -177 11 0 66 57 221 230 67 74 146 157 176 183 31 27 55 57 55
68 0 30 -22 22 -65 -25z"/>
<path d="M6510 3325 c0 -8 5 -15 10 -15 6 0 10 7 10 15 0 8 -4 15 -10 15 -5 0
-10 -7 -10 -15z"/>
<path d="M14139 3066 c-28 -48 -167 -135 -199 -124 -6 2 -3 18 10 43 25 48 25
49 0 42 -11 -3 -22 -1 -25 3 -10 16 -66 -12 -108 -52 -40 -38 -41 -40 -23 -54
22 -16 48 -11 89 18 27 19 27 19 27 -1 0 -30 24 -27 115 18 44 22 82 38 84 35
12 -12 -37 -77 -73 -97 -23 -12 -41 -29 -41 -37 0 -26 34 -22 65 8 16 16 50
42 75 56 25 15 45 29 45 32 0 3 -16 -4 -36 -15 l-35 -21 6 22 c3 13 19 50 36
82 16 32 29 63 29 67 0 20 -22 7 -41 -25z m-229 -70 c0 -15 -59 -56 -80 -56
-18 0 7 28 45 52 36 22 35 21 35 4z"/>
<path d="M14280 3020 c-50 -28 -77 -52 -84 -77 -11 -35 27 -39 79 -8 43 25 45
25 45 5 0 -24 20 -26 60 -5 39 20 38 26 0 12 -40 -15 -46 -4 -22 37 19 33 15
55 -7 41 -5 -3 -12 -1 -16 5 -8 13 -14 12 -55 -10z m40 -22 c0 -16 -60 -58
-81 -58 -8 1 3 16 25 35 42 37 56 43 56 23z"/>
<path d="M15324 3022 c-48 -27 -70 -45 -83 -70 -14 -27 -14 -27 15 -36 14 -4
33 2 58 19 44 30 46 30 46 5 0 -24 20 -26 60 -5 39 20 38 26 0 12 -40 -15 -46
-4 -22 37 19 33 15 55 -7 41 -5 -3 -12 -1 -16 5 -8 13 -14 12 -51 -8z m36 -21
c0 -15 -60 -61 -78 -61 -12 0 -6 11 20 35 37 34 58 44 58 26z"/>
<path d="M15785 3033 c-53 -10 -66 -15 -101 -45 -36 -30 -44 -46 -48 -88 -3
-43 112 -3 165 58 44 50 37 84 -16 75z m3 -61 c-21 -34 -104 -80 -119 -65 -18
18 9 53 56 74 24 11 47 24 51 30 4 8 10 7 17 0 8 -8 7 -19 -5 -39z"/>
<path d="M12980 2371 c-14 -27 -14 -29 22 -61 27 -25 30 -31 18 -45 -13 -16
-15 -15 -27 1 -7 10 -16 15 -19 11 -12 -12 19 -38 40 -35 34 5 34 56 0 83 -20
16 -25 27 -20 41 7 19 8 19 22 0 15 -22 30 -16 21 9 -9 21 -44 19 -57 -4z"/>
<path d="M13310 2380 c0 -5 5 -10 10 -10 6 0 10 5 10 10 0 6 -4 10 -10 10 -5
0 -10 -4 -10 -10z"/>
<path d="M13366 2359 c-9 -48 -7 -119 4 -119 6 0 10 20 10 44 0 26 5 46 13 49
9 4 9 8 -2 15 -12 9 -12 13 -2 26 11 13 11 16 -2 16 -8 0 -17 -13 -21 -31z"/>
<path d="M13410 2380 c0 -5 5 -10 10 -10 6 0 10 5 10 10 0 6 -4 10 -10 10 -5
0 -10 -4 -10 -10z"/>
<path d="M13470 2315 c0 -71 13 -101 23 -52 l4 22 8 -22 c4 -13 12 -23 17 -23
5 0 6 10 2 23 -9 27 -9 46 0 72 7 17 5 17 -13 -4 l-21 -23 0 41 c0 23 -4 41
-10 41 -6 0 -10 -32 -10 -75z"/>
<path d="M13920 2380 c0 -5 5 -10 10 -10 6 0 10 5 10 10 0 6 -4 10 -10 10 -5
0 -10 -4 -10 -10z"/>
<path d="M14180 2321 c0 -39 5 -73 11 -76 15 -10 15 -8 11 73 -5 92 -22 94
-22 3z"/>
<path d="M14330 2315 c0 -43 4 -75 10 -75 6 0 10 21 10 46 0 60 23 55 31 -7
l6 -44 1 53 c2 46 -1 55 -18 59 -11 3 -20 14 -20 24 0 11 -4 19 -10 19 -6 0
-10 -32 -10 -75z"/>
<path d="M14520 2371 c0 -10 -9 -21 -20 -24 -45 -12 -32 -107 15 -107 25 0 25
1 25 75 0 43 -4 75 -10 75 -5 0 -10 -8 -10 -19z m0 -76 c0 -24 -5 -35 -15 -35
-10 0 -15 11 -15 35 0 24 5 35 15 35 10 0 15 -11 15 -35z"/>
<path d="M14570 2380 c0 -5 5 -10 10 -10 6 0 10 5 10 10 0 6 -4 10 -10 10 -5
0 -10 -4 -10 -10z"/>
<path d="M14930 2380 c0 -5 5 -10 10 -10 6 0 10 5 10 10 0 6 -4 10 -10 10 -5
0 -10 -4 -10 -10z"/>
<path d="M14988 2368 c-2 -13 -1 -48 3 -78 l6 -55 2 47 c0 26 6 48 14 51 9 4
9 8 -2 15 -12 9 -12 13 -2 26 11 13 11 16 -2 16 -8 0 -17 -10 -19 -22z"/>
<path d="M15030 2380 c0 -5 5 -10 10 -10 6 0 10 5 10 10 0 6 -4 10 -10 10 -5
0 -10 -4 -10 -10z"/>
<path d="M15090 2315 c0 -71 13 -101 23 -52 l4 22 8 -22 c4 -13 12 -23 17 -23
6 0 7 7 4 16 -14 38 -17 62 -7 68 6 4 11 13 11 19 -1 7 -10 1 -20 -12 l-20
-23 0 41 c0 23 -4 41 -10 41 -6 0 -10 -32 -10 -75z"/>
<path d="M15360 2380 c0 -5 5 -10 10 -10 6 0 10 5 10 10 0 6 -4 10 -10 10 -5
0 -10 -4 -10 -10z"/>
<path d="M15560 2321 c0 -39 5 -73 11 -76 15 -10 15 -8 11 73 -5 92 -22 94
-22 3z"/>
<path d="M15710 2315 c0 -79 17 -104 22 -33 4 59 28 63 28 4 0 -26 5 -46 11
-46 6 0 9 19 7 48 -2 38 -7 49 -25 57 -13 5 -23 18 -23 27 0 10 -4 18 -10 18
-6 0 -10 -32 -10 -75z"/>
<path d="M15860 2315 c0 -43 4 -75 10 -75 6 0 10 21 11 48 l1 47 13 -35 13
-35 14 35 13 35 6 -50 c5 -45 6 -42 7 28 2 78 -10 96 -23 37 -10 -44 -21 -44
-34 0 -18 62 -31 47 -31 -35z"/>
<path d="M16321 2318 c0 -46 3 -78 9 -78 6 0 10 17 11 38 l1 37 15 -37 c9 -21
20 -38 25 -38 6 0 7 8 3 18 -25 62 -26 71 -10 101 8 17 11 31 6 31 -6 0 -18
-15 -28 -32 l-17 -33 -7 35 c-5 25 -7 14 -8 -42z"/>
<path d="M13249 2365 c-10 -39 2 -125 17 -125 8 0 14 5 14 10 0 6 -4 10 -10
10 -15 0 -12 67 3 73 8 4 9 8 1 14 -6 4 -13 15 -16 23 -3 11 -6 9 -9 -5z"/>
<path d="M13659 2365 c-7 -68 9 -140 28 -122 4 4 1 13 -5 19 -16 16 -15 65 1
71 8 4 9 8 1 14 -6 4 -14 15 -17 23 -4 11 -6 10 -8 -5z"/>
<path d="M14018 2363 c-7 -27 6 -116 17 -120 8 -2 11 50 6 125 -1 18 -18 15
-23 -5z"/>
<path d="M16509 2358 c-2 -13 -2 -43 1 -68 4 -34 10 -46 25 -49 17 -3 18 -1 6
12 -7 9 -12 33 -11 54 4 54 1 73 -9 73 -5 0 -10 -10 -12 -22z"/>
<path d="M13079 2326 c-14 -29 -4 -75 16 -83 19 -6 47 15 39 29 -4 6 -11 4
-16 -6 -10 -18 -28 -12 -28 10 0 8 10 14 25 14 27 0 35 26 13 48 -19 19 -37
14 -49 -12z m41 -11 c0 -8 -7 -15 -15 -15 -8 0 -15 7 -15 15 0 8 7 15 15 15 8
0 15 -7 15 -15z"/>
<path d="M13170 2293 c0 -29 5 -53 10 -53 6 0 10 20 10 45 0 33 4 45 15 45 8
0 15 4 15 10 0 5 -11 9 -25 8 -23 -2 -25 -6 -25 -55z"/>
<path d="M13310 2296 c0 -31 5 -56 10 -56 6 0 10 22 10 49 0 28 -4 53 -10 56
-6 4 -10 -15 -10 -49z"/>
<path d="M13417 2343 c-11 -10 -8 -103 3 -103 6 0 10 25 10 55 0 56 -1 60 -13
48z"/>
<path d="M13567 2343 c-4 -3 -7 -13 -7 -22 0 -12 3 -12 12 -3 16 16 28 15 28
-3 0 -8 -9 -15 -20 -15 -16 0 -20 -7 -20 -30 0 -27 3 -30 30 -30 29 0 30 2 30
43 0 53 -28 85 -53 60z m33 -73 c0 -11 -4 -20 -9 -20 -14 0 -23 18 -16 30 10
17 25 11 25 -10z"/>
<path d="M13773 2295 c0 -33 2 -45 4 -27 2 18 2 45 0 60 -2 15 -4 0 -4 -33z"/>
<path d="M13820 2294 c0 -30 5 -54 10 -54 6 0 10 20 10 45 0 25 5 45 10 45 6
0 10 -20 10 -45 0 -25 5 -45 11 -45 6 0 9 21 7 53 -3 49 -5 52 -30 53 -27 1
-28 -1 -28 -52z"/>
<path d="M13920 2296 c0 -31 5 -56 10 -56 6 0 10 22 10 49 0 28 -4 53 -10 56
-6 4 -10 -15 -10 -49z"/>
<path d="M14092 2338 c-17 -17 -15 -73 3 -88 19 -16 45 -6 45 17 -1 17 -1 17
-11 0 -11 -19 -29 -14 -29 9 0 8 10 14 25 14 28 0 28 0 15 34 -10 28 -29 33
-48 14z m38 -23 c0 -8 -7 -15 -15 -15 -8 0 -15 7 -15 15 0 8 7 15 15 15 8 0
15 -7 15 -15z"/>
<path d="M14243 2335 c-3 -9 -3 -19 1 -22 3 -4 6 -1 6 5 0 7 7 12 15 12 24 0
17 -28 -7 -32 -17 -2 -23 -10 -23 -28 0 -21 5 -26 33 -28 31 -3 32 -2 32 33 0
20 -5 45 -10 56 -13 23 -38 25 -47 4z m37 -59 c0 -8 -4 -17 -9 -21 -12 -7 -24
12 -16 25 9 15 25 12 25 -4z"/>
<path d="M14577 2343 c-11 -10 -8 -103 3 -103 6 0 10 25 10 55 0 56 -1 60 -13
48z"/>
<path d="M14670 2340 c0 -24 23 -100 30 -100 4 0 13 20 19 44 14 55 14 69 1
61 -5 -3 -10 -17 -10 -31 0 -13 -4 -24 -10 -24 -5 0 -10 11 -10 24 0 14 -4 28
-10 31 -5 3 -10 1 -10 -5z"/>
<path d="M14766 2335 c-9 -23 -7 -68 3 -83 12 -20 45 -10 49 13 3 19 2 19 -11
3 -15 -18 -27 -14 -27 9 0 7 9 13 21 13 16 0 20 5 17 28 -4 31 -41 44 -52 17z
m36 -20 c0 -5 -5 -11 -11 -13 -6 -2 -11 4 -11 13 0 9 5 15 11 13 6 -2 11 -8
11 -13z"/>
<path d="M14861 2290 l2 -55 7 44 c4 25 12 47 18 49 20 6 13 21 -8 19 -18 -1
-20 -8 -19 -57z"/>
<path d="M14930 2295 c0 -30 5 -55 10 -55 6 0 10 25 10 55 0 30 -4 55 -10 55
-5 0 -10 -25 -10 -55z"/>
<path d="M15037 2343 c-11 -10 -8 -103 3 -103 6 0 10 25 10 55 0 56 -1 60 -13
48z"/>
<path d="M15187 2343 c-4 -3 -7 -13 -7 -22 0 -12 3 -12 12 -3 16 16 28 15 28
-3 0 -8 -9 -15 -20 -15 -16 0 -20 -7 -20 -30 0 -27 3 -30 30 -30 29 0 30 2 30
43 0 53 -28 85 -53 60z m33 -73 c0 -11 -4 -20 -9 -20 -14 0 -23 18 -16 30 10
17 25 11 25 -10z"/>
<path d="M15283 2343 c-22 -8 -14 -43 12 -53 14 -5 25 -13 25 -18 0 -17 -13
-22 -27 -10 -16 13 -31 2 -16 -13 17 -17 48 -6 51 19 3 17 -2 25 -17 29 -12 3
-21 12 -21 19 0 17 12 18 28 2 9 -9 12 -8 12 4 0 12 -24 32 -33 27 -1 0 -8 -3
-14 -6z"/>
<path d="M15367 2343 c-11 -10 -8 -103 3 -103 6 0 10 25 10 55 0 56 -1 60 -13
48z"/>
<path d="M15472 2338 c-13 -13 -16 -56 -6 -82 9 -25 43 -19 56 9 22 48 -17
106 -50 73z m36 -45 c-2 -21 -7 -38 -13 -38 -5 0 -11 17 -13 38 -3 29 0 37 13
37 13 0 16 -8 13 -37z"/>
<path d="M15624 2337 c-3 -8 -4 -32 -2 -53 3 -34 6 -39 28 -39 17 0 26 6 28
20 3 16 1 18 -9 8 -17 -17 -29 -16 -29 2 0 8 9 15 21 15 31 0 23 54 -9 58 -13
2 -24 -3 -28 -11z m36 -22 c0 -8 -4 -15 -10 -15 -5 0 -10 7 -10 15 0 8 5 15
10 15 6 0 10 -7 10 -15z"/>
<path d="M15994 2335 c-4 -9 -3 -19 1 -23 4 -4 10 -1 12 6 6 16 23 15 23 -2 0
-7 -9 -16 -21 -19 -33 -9 -22 -51 14 -55 28 -3 28 -3 25 50 -3 46 -6 53 -26
56 -13 2 -25 -3 -28 -13z m36 -65 c0 -11 -4 -20 -10 -20 -5 0 -10 9 -10 20 0
11 5 20 10 20 6 0 10 -9 10 -20z"/>
<path d="M16093 2343 c-22 -8 -14 -43 12 -53 14 -5 25 -13 25 -18 0 -17 -13
-22 -27 -10 -16 13 -31 2 -16 -13 17 -17 48 -6 51 19 3 17 -2 25 -17 29 -12 3
-21 12 -21 19 0 17 12 18 28 2 7 -7 12 -8 12 -2 0 11 -21 34 -29 33 -4 0 -12
-3 -18 -6z"/>
<path d="M16180 2335 c-7 -8 -9 -19 -5 -23 4 -4 10 -1 12 6 6 16 23 15 23 -2
0 -7 -9 -16 -21 -19 -33 -9 -22 -51 14 -55 28 -3 28 -3 25 50 -3 56 -22 74
-48 43z m30 -65 c0 -11 -4 -20 -10 -20 -5 0 -10 9 -10 20 0 11 5 20 10 20 6 0
10 -9 10 -20z"/>
<path d="M16421 2336 c-7 -9 -8 -17 -2 -20 5 -3 11 0 14 6 4 10 7 10 17 1 11
-10 8 -14 -14 -23 -38 -14 -33 -54 7 -58 28 -3 28 -3 25 50 -3 56 -22 74 -47
44z m37 -63 c-5 -25 -28 -28 -28 -4 0 12 6 21 16 21 9 0 14 -7 12 -17z"/>
<path d="M16582 2338 c-13 -13 -16 -56 -6 -82 3 -9 16 -16 29 -16 25 0 35 17
35 59 0 28 -16 51 -35 51 -6 0 -16 -5 -23 -12z m36 -45 c-2 -21 -7 -38 -13
-38 -5 0 -11 17 -13 38 -3 29 0 37 13 37 13 0 16 -8 13 -37z"/>
<path d="M12980 1995 c0 -43 4 -75 10 -75 6 0 10 14 10 30 0 20 5 30 15 30 8
0 15 5 15 10 0 6 -7 10 -15 10 -9 0 -15 9 -15 25 0 18 5 25 20 25 11 0 20 5
20 10 0 6 -13 10 -30 10 l-30 0 0 -75z"/>
<path d="M13410 2044 c0 -19 -4 -25 -14 -21 -23 9 -38 -18 -34 -60 3 -33 7
-38 31 -41 l27 -3 0 75 c0 42 -2 76 -5 76 -3 0 -5 -12 -5 -26z m-10 -74 c0
-22 -4 -40 -10 -40 -5 0 -10 18 -10 40 0 22 5 40 10 40 6 0 10 -18 10 -40z"/>
<path d="M13691 2052 c-6 -11 -7 -22 -4 -26 3 -3 0 -24 -7 -46 -17 -51 -1 -74
46 -64 26 5 30 10 31 40 1 27 -2 33 -12 24 -16 -13 -29 12 -13 28 15 15 5 56
-14 60 -9 2 -21 -5 -27 -16z m37 -19 c-4 -22 -22 -20 -26 1 -2 10 3 16 13 16
10 0 15 -7 13 -17z m2 -95 c0 -4 -9 -8 -20 -8 -20 0 -28 29 -13 44 7 7 33 -21
33 -36z"/>
<path d="M13862 2061 c-9 -5 -12 -27 -10 -72 3 -61 4 -64 29 -67 18 -2 29 3
33 14 10 25 -2 30 -19 8 -13 -16 -16 -17 -25 -4 -11 17 -13 70 -4 94 7 17 34
22 34 6 0 -5 5 -10 10 -10 7 0 7 6 0 20 -11 21 -27 25 -48 11z"/>
<path d="M13957 2063 c-4 -3 -7 -37 -7 -75 l0 -68 38 1 c30 2 32 3 10 6 -22 3
-28 10 -28 29 0 17 5 24 20 24 11 0 20 5 20 10 0 6 -9 10 -20 10 -15 0 -20 7
-20 25 0 20 5 25 26 25 14 0 23 4 19 10 -7 11 -48 14 -58 3z"/>
<path d="M14061 2056 c-7 -9 -11 -38 -9 -73 3 -57 3 -58 33 -58 30 0 30 0 33
64 2 45 -1 67 -10 72 -19 13 -34 11 -47 -5z m45 -31 c9 -35 -4 -97 -19 -92 -7
2 -13 28 -15 60 -2 46 0 57 12 57 9 0 18 -11 22 -25z"/>
<path d="M14210 1995 c0 -43 4 -75 10 -75 6 0 10 11 10 25 0 14 4 25 9 25 16
0 41 31 41 50 0 24 -26 50 -51 50 -17 0 -19 -8 -19 -75z m45 25 c0 -13 -6 -25
-12 -27 -9 -3 -13 6 -13 27 0 21 4 30 13 28 6 -3 12 -15 12 -28z"/>
<path d="M14668 2038 c-6 -43 4 -118 15 -118 8 0 11 18 10 52 -1 29 -2 61 -2
71 -1 25 -19 21 -23 -5z"/>
<path d="M13081 2016 c-7 -8 -11 -32 -9 -53 3 -33 6 -38 28 -38 22 0 25 5 28
44 2 28 -1 47 -10 52 -18 12 -24 11 -37 -5z m29 -46 c0 -22 -4 -40 -10 -40 -5
0 -10 18 -10 40 0 22 5 40 10 40 6 0 10 -18 10 -40z"/>
<path d="M13278 2023 c-14 -3 -18 -15 -18 -54 0 -27 5 -49 10 -49 6 0 10 21
10 46 0 59 24 55 28 -4 2 -23 7 -42 13 -42 15 0 10 77 -7 94 -8 9 -16 15 -17
15 -1 -1 -10 -3 -19 -6z"/>
<path d="M13471 2021 c-8 -5 -11 -24 -9 -52 3 -39 6 -44 27 -44 13 0 26 6 29
13 2 6 -1 12 -7 12 -6 0 -11 -4 -11 -10 0 -5 -4 -10 -10 -10 -5 0 -10 9 -10
20 0 13 7 20 20 20 13 0 20 7 20 20 0 23 -30 42 -49 31z m29 -26 c0 -8 -4 -15
-10 -15 -5 0 -10 7 -10 15 0 8 5 15 10 15 6 0 10 -7 10 -15z"/>
<path d="M13568 2023 c-14 -4 -18 -15 -18 -54 0 -27 5 -49 10 -49 6 0 10 18
10 40 0 26 6 42 16 48 19 11 7 20 -18 15z"/>
<path d="M14328 2022 c-14 -3 -18 -14 -18 -53 0 -27 5 -49 10 -49 6 0 10 20
10 44 0 26 5 46 13 49 17 6 5 14 -15 9z"/>
<path d="M14391 2016 c-7 -8 -11 -32 -9 -53 3 -33 6 -38 28 -38 22 0 25 5 28
44 2 28 -1 47 -10 52 -18 12 -24 11 -37 -5z m29 -46 c0 -22 -4 -40 -10 -40 -5
0 -10 18 -10 40 0 22 5 40 10 40 6 0 10 -18 10 -40z"/>
<path d="M14493 2023 c-8 -3 -13 -23 -13 -54 0 -42 3 -49 20 -49 11 0 20 -6
20 -14 0 -20 -17 -29 -23 -14 -2 7 -8 10 -12 6 -11 -10 4 -28 25 -28 23 0 30
19 30 90 0 47 -3 59 -17 62 -10 3 -24 3 -30 1z m25 -50 c-3 -42 -21 -51 -26
-15 -4 29 4 52 18 52 7 0 10 -15 8 -37z"/>
<path d="M14583 2015 c-10 -7 -14 -17 -10 -21 4 -5 12 -2 18 6 8 13 10 13 19
0 7 -11 4 -16 -13 -20 -15 -4 -23 -15 -25 -33 -3 -24 0 -27 27 -27 30 0 31 1
31 49 0 54 -15 69 -47 46z m23 -82 c-11 -11 -19 6 -11 24 8 17 8 17 12 0 3
-10 2 -21 -1 -24z"/>
<path d="M14745 2014 c-15 -16 -20 -50 -9 -78 8 -22 54 -21 54 1 0 13 -3 14
-12 5 -18 -18 -28 -15 -28 8 0 15 7 20 26 20 20 0 25 4 20 16 -3 9 -6 19 -6
24 0 16 -30 19 -45 4z m33 -22 c2 -7 -3 -12 -12 -12 -9 0 -16 7 -16 16 0 17
22 14 28 -4z"/>
<path d="M13172 1973 c-2 -53 -2 -53 28 -53 29 0 30 1 30 50 0 61 -18 67 -22
8 -4 -56 -21 -55 -29 2 l-6 45 -1 -52z"/>
<path d="M13195 1549 c-9 -13 -8 -14 37 -32 20 -8 44 -27 54 -41 22 -35 23
-96 1 -129 -19 -29 -78 -71 -114 -82 -23 -6 -23 -6 -23 109 0 63 -3 117 -7
119 -5 3 -38 8 -75 12 l-68 7 0 -146 c0 -123 2 -146 15 -146 13 0 15 21 15
126 l0 125 38 -3 37 -3 3 -112 3 -112 -33 -17 c-46 -23 -68 -44 -68 -65 0 -23
45 -47 96 -51 l39 -3 3 56 3 55 57 26 c31 15 72 43 91 62 30 31 35 44 38 93 3
46 0 65 -16 91 -34 53 -109 90 -126 61z m-75 -379 c0 -33 -5 -35 -45 -20 -29
11 -25 26 9 40 33 14 36 12 36 -20z"/>
<path d="M14443 1450 c-3 -11 -9 -20 -14 -20 -5 0 -9 -7 -9 -15 0 -8 4 -15 9
-15 5 0 11 -25 13 -56 5 -58 16 -74 56 -74 27 0 29 26 2 33 -16 4 -20 14 -20
51 0 39 3 46 20 46 11 0 20 7 20 15 0 8 -9 15 -20 15 -13 0 -20 7 -20 20 0 12
-7 20 -16 20 -9 0 -18 -9 -21 -20z"/>
<path d="M13510 1313 c0 -106 1 -113 20 -113 16 0 20 7 20 38 0 37 1 38 34 34
70 -8 111 74 65 131 -18 24 -26 27 -80 25 l-59 -2 0 -113z m108 75 c17 -17 15
-63 -2 -78 -8 -6 -25 -10 -38 -8 -18 2 -24 10 -26 36 -5 52 34 82 66 50z"/>
<path d="M13710 1350 c0 -73 2 -80 20 -80 18 0 20 7 20 56 0 53 2 56 30 67 17
6 30 15 30 20 0 15 -32 20 -51 8 -12 -7 -19 -7 -19 -1 0 5 -7 10 -15 10 -12 0
-15 -16 -15 -80z"/>
<path d="M13851 1413 c-12 -10 -24 -35 -27 -55 -17 -101 142 -123 162 -22 13
69 -80 122 -135 77z m83 -29 c32 -31 8 -84 -38 -84 -30 0 -46 18 -46 52 0 43
53 64 84 32z"/>
<path d="M14042 1407 c-53 -56 -8 -145 66 -133 30 4 33 3 30 -17 -2 -16 -11
-23 -32 -25 -16 -2 -33 1 -39 7 -13 13 -47 14 -47 2 0 -5 12 -19 27 -31 21
-17 36 -20 63 -16 57 9 70 34 70 140 l0 92 -58 2 c-50 1 -62 -2 -80 -21z m86
-19 c17 -17 15 -63 -3 -78 -12 -10 -21 -10 -40 -2 -42 19 -30 92 15 92 9 0 21
-5 28 -12z"/>
<path d="M14241 1406 c-30 -32 -30 -80 -1 -111 20 -21 32 -24 82 -24 l59 1 -3
77 -3 76 -56 2 c-47 3 -59 -1 -78 -21z m87 -18 c7 -7 12 -24 12 -38 0 -47 -37
-65 -72 -33 -22 20 -23 41 -1 65 19 21 44 23 61 6z"/>
<path d="M14573 1404 c-21 -21 -24 -32 -19 -62 3 -20 15 -45 27 -54 36 -30
119 -18 119 17 0 17 -26 20 -35 5 -14 -22 -75 -4 -75 22 0 4 27 8 60 8 52 0
60 3 60 19 0 10 -9 30 -21 45 -28 36 -80 36 -116 0z m95 -21 c2 -9 -9 -13 -38
-13 -37 0 -41 2 -30 16 15 17 61 15 68 -3z"/>
</g>
</svg>
